<?xml version="1.0" encoding="UTF-8"?>
<svg width="40px" height="40px" viewBox="0 0 40 40" version="1.1" xmlns="http://www.w3.org/2000/svg" xmlns:xlink="http://www.w3.org/1999/xlink">
    <title>Settings</title>
    <g fill="#333333">
        <path d="M17.4547522,30.9541643 C16.2083288,30.6638939 15.0413556,30.1664585 13.9920226,29.5000835 L14.189488,28.1244656 C14.3464366,27.0311034 13.5873233,26.0175262 12.4939611,25.8605777 C12.3053009,25.8334962 12.1137382,25.8335211 11.9250851,25.8606517 L10.5358133,26.060446 C9.86645251,25.0177647 9.36408334,23.8574643 9.06651216,22.617386 L10.226598,21.7479782 L10.226598,21.7479782 C11.1104937,21.0855567 11.290034,19.832019 10.6276126,18.9481233 C10.5136678,18.7960823 10.3786391,18.6610536 10.226598,18.5471088 L9,17.6278545 C9.25943948,16.401997 9.71793729,15.2497128 10.3400416,14.2064867 L11.9250851,14.4344354 C13.0184065,14.5916683 14.032181,13.8328188 14.189414,12.7394974 C14.2165446,12.5508443 14.2165696,12.3592816 14.189488,12.1706215 L13.9467263,10.4794527 C14.9465328,9.8378188 16.0543348,9.35004864 17.2367757,9.04952986 L18.2954853,10.464822 C18.9571228,11.3493047 20.2105009,11.5299563 21.0949836,10.8683188 C21.2480771,10.7537972 21.3839587,10.6179155 21.4984804,10.464822 L22.5942409,9 C23.7662131,9.27465518 24.8677331,9.73251838 25.8670042,10.3417636 L25.6044777,12.1706215 L25.6044777,12.1706215 C25.4475292,13.2639837 26.2066425,14.2775608 27.3000047,14.4345094 C27.4886649,14.4615909 27.6802275,14.461566 27.8688806,14.4344354 L29.6747662,14.1747269 C30.280218,15.182489 30.7326835,16.2927927 31,17.4734455 L29.5673677,18.5471088 L29.5673677,18.5471088 C28.683472,19.2095303 28.5039317,20.463068 29.1663532,21.3469637 C29.2802979,21.4990048 29.4153266,21.6340335 29.5673677,21.7479782 L30.9297969,22.769029 C30.625217,23.9645732 30.1296985,25.08372 29.4776645,26.0920145 L27.8688806,25.8606517 C26.7755593,25.7034187 25.7617847,26.4622683 25.6045517,27.5555896 C25.5774211,27.7442428 25.5773962,27.9358054 25.6044777,28.1244656 L25.8215169,29.6364414 C24.7716429,30.2697529 23.6101257,30.7364623 22.3735009,31 L21.4984804,29.8302651 C20.8368429,28.9457824 19.5834648,28.7651307 18.6989822,29.4267682 C18.5458887,29.5412899 18.410007,29.6771715 18.2954853,29.8302651 L18.2954853,29.8302651 L17.4547522,30.9541643 Z M20.0007459,24.4206711 C22.4425593,24.4206711 24.4220402,22.441003 24.4220402,19.9989586 C24.4220402,17.5569142 22.4425593,15.577246 20.0007459,15.577246 C17.5589324,15.577246 15.5794516,17.5569142 15.5794516,19.9989586 C15.5794516,22.441003 17.5589324,24.4206711 20.0007459,24.4206711 Z"></path>
    </g>
</svg>
